{
	"asset":{
		"generator":"Khronos glTF Blender I/O v4.3.47",
		"version":"2.0"
	},
	"scene":0,
	"scenes":[
		{
			"name":"Scene",
			"nodes":[
				0,
				1,
				2
			]
		}
	],
	"nodes":[
		{
			"mesh":0,
			"name":"Icosphere"
		},
		{
			"mesh":1,
			"name":"Icosphere.001"
		},
		{
			"mesh":2,
			"name":"Icosphere.002"
		}
	],
	"meshes":[
		{
			"name":"Icosphere",
			"primitives":[
				{
					"attributes":{
						"POSITION":0,
						"NORMAL":1,
						"TEXCOORD_0":2
					},
					"indices":3
				}
			]
		},
		{
			"name":"Icosphere.001",
			"primitives":[
				{
					"attributes":{
						"POSITION":4,
						"NORMAL":5,
						"TEXCOORD_0":6
					},
					"indices":7
				}
			]
		},
		{
			"name":"Icosphere.002",
			"primitives":[
				{
					"attributes":{
						"POSITION":8,
						"NORMAL":9,
						"TEXCOORD_0":10
					},
					"indices":11
				}
			]
		}
	],
	"accessors":[
		{
			"bufferView":0,
			"componentType":5126,
			"count":20,
			"max":[
				0.8944249749183655,
				1.419003963470459,
				0.8506399989128113
			],
			"min":[
				-0.7235999703407288,
				0.9985826015472412,
				-0.8506399989128113
			],
			"type":"VEC3"
		},
		{
			"bufferView":1,
			"componentType":5126,
			"count":20,
			"type":"VEC3"
		},
		{
			"bufferView":2,
			"componentType":5126,
			"count":20,
			"type":"VEC2"
		},
		{
			"bufferView":3,
			"componentType":5123,
			"count":24,
			"type":"SCALAR"
		},
		{
			"bufferView":4,
			"componentType":5126,
			"count":60,
			"max":[
				0.8944249749183655,
				1.1476670503616333,
				0.8506399989128113
			],
			"min":[
				-0.8944249749183655,
				-1,
				-0.8506399989128113
			],
			"type":"VEC3"
		},
		{
			"bufferView":5,
			"componentType":5126,
			"count":60,
			"type":"VEC3"
		},
		{
			"bufferView":6,
			"componentType":5126,
			"count":60,
			"type":"VEC2"
		},
		{
			"bufferView":7,
			"componentType":5123,
			"count":60,
			"type":"SCALAR"
		},
		{
			"bufferView":8,
			"componentType":5126,
			"count":18,
			"max":[
				1.1638009548187256,
				1.2940735816955566,
				0.11167432367801666
			],
			"min":[
				-5.400862693786621,
				0.3125443458557129,
				-0.05583721026778221
			],
			"type":"VEC3"
		},
		{
			"bufferView":9,
			"componentType":5126,
			"count":18,
			"type":"VEC3"
		},
		{
			"bufferView":10,
			"componentType":5126,
			"count":18,
			"type":"VEC2"
		},
		{
			"bufferView":11,
			"componentType":5123,
			"count":24,
			"type":"SCALAR"
		}
	],
	"bufferViews":[
		{
			"buffer":0,
			"byteLength":240,
			"byteOffset":0,
			"target":34962
		},
		{
			"buffer":0,
			"byteLength":240,
			"byteOffset":240,
			"target":34962
		},
		{
			"buffer":0,
			"byteLength":160,
			"byteOffset":480,
			"target":34962
		},
		{
			"buffer":0,
			"byteLength":48,
			"byteOffset":640,
			"target":34963
		},
		{
			"buffer":0,
			"byteLength":720,
			"byteOffset":688,
			"target":34962
		},
		{
			"buffer":0,
			"byteLength":720,
			"byteOffset":1408,
			"target":34962
		},
		{
			"buffer":0,
			"byteLength":480,
			"byteOffset":2128,
			"target":34962
		},
		{
			"buffer":0,
			"byteLength":120,
			"byteOffset":2608,
			"target":34963
		},
		{
			"buffer":0,
			"byteLength":216,
			"byteOffset":2728,
			"target":34962
		},
		{
			"buffer":0,
			"byteLength":216,
			"byteOffset":2944,
			"target":34962
		},
		{
			"buffer":0,
			"byteLength":144,
			"byteOffset":3160,
			"target":34962
		},
		{
			"buffer":0,
			"byteLength":48,
			"byteOffset":3304,
			"target":34963
		}
	],
	"buffers":[
		{
			"byteLength":3352,
			"uri":"bindle.bin"
		}
	]
}
