{
	"asset":{
		"generator":"Khronos glTF Blender I/O v4.3.47",
		"version":"2.0"
	},
	"scene":0,
	"scenes":[
		{
			"name":"Scene",
			"nodes":[
				0,
				1,
				2,
				3,
				4,
				5,
				6,
				7
			]
		}
	],
	"nodes":[
		{
			"mesh":0,
			"name":"Bubble-noimp"
		},
		{
			"mesh":1,
			"name":"Torus-noimp",
			"rotation":[
				0,
				0,
				-0.7071068286895752,
				0.7071068286895752
			]
		},
		{
			"mesh":2,
			"name":"Circle-noimp"
		},
		{
			"name":"NurbsPath-noimp"
		},
		{
			"mesh":3,
			"name":"Cave-noimp"
		},
		{
			"mesh":4,
			"name":"Base-col"
		},
		{
			"mesh":5,
			"name":"Tube-noimp",
			"translation":[
				0,
				0,
				20
			]
		},
		{
			"mesh":6,
			"name":"Cylinder-noimp",
			"rotation":[
				0.6789134740829468,
				-0.2635902762413025,
				-0.007174625992774963,
				0.6852336525917053
			],
			"translation":[
				7.0346550941467285,
				-1.9425123929977417,
				-34.77643966674805
			]
		}
	],
	"meshes":[
		{
			"name":"Icosphere",
			"primitives":[
				{
					"attributes":{
						"POSITION":0,
						"NORMAL":1,
						"TEXCOORD_0":2
					},
					"indices":3
				}
			]
		},
		{
			"name":"Torus",
			"primitives":[
				{
					"attributes":{
						"POSITION":4,
						"NORMAL":5,
						"TEXCOORD_0":6
					},
					"indices":7
				}
			]
		},
		{
			"name":"Circle",
			"primitives":[
				{
					"attributes":{
						"POSITION":8,
						"NORMAL":9,
						"TEXCOORD_0":10
					},
					"indices":11
				}
			]
		},
		{
			"name":"Circle.001",
			"primitives":[
				{
					"attributes":{
						"POSITION":12,
						"NORMAL":13,
						"TEXCOORD_0":14
					},
					"indices":15
				}
			]
		},
		{
			"name":"Cube.001",
			"primitives":[
				{
					"attributes":{
						"POSITION":16,
						"NORMAL":17,
						"TEXCOORD_0":18
					},
					"indices":19
				}
			]
		},
		{
			"name":"Plane.001",
			"primitives":[
				{
					"attributes":{
						"POSITION":20,
						"NORMAL":21
					},
					"indices":22
				}
			]
		},
		{
			"name":"Cylinder.001",
			"primitives":[
				{
					"attributes":{
						"POSITION":23,
						"NORMAL":24,
						"TEXCOORD_0":25
					},
					"indices":26
				}
			]
		}
	],
	"accessors":[
		{
			"bufferView":0,
			"componentType":5126,
			"count":63,
			"max":[
				0.19021157920360565,
				0.20000000298023224,
				0.20000001788139343
			],
			"min":[
				-0.19021157920360565,
				-0.20000000298023224,
				-0.20000001788139343
			],
			"type":"VEC3"
		},
		{
			"bufferView":1,
			"componentType":5126,
			"count":63,
			"type":"VEC3"
		},
		{
			"bufferView":2,
			"componentType":5126,
			"count":63,
			"type":"VEC2"
		},
		{
			"bufferView":3,
			"componentType":5123,
			"count":240,
			"type":"SCALAR"
		},
		{
			"bufferView":4,
			"componentType":5126,
			"count":2304,
			"max":[
				4.673312664031982,
				4.673313140869141,
				7.500003814697266
			],
			"min":[
				-4.673312664031982,
				-5.646576881408691,
				-9.708196640014648
			],
			"type":"VEC3"
		},
		{
			"bufferView":5,
			"componentType":5126,
			"count":2304,
			"type":"VEC3"
		},
		{
			"bufferView":6,
			"componentType":5126,
			"count":2304,
			"type":"VEC2"
		},
		{
			"bufferView":7,
			"componentType":5123,
			"count":3456,
			"type":"SCALAR"
		},
		{
			"bufferView":8,
			"componentType":5126,
			"count":15872,
			"max":[
				26.14341163635254,
				3.000005006790161,
				21.105716705322266
			],
			"min":[
				-23.46489906311035,
				-10.765033721923828,
				-59.862510681152344
			],
			"type":"VEC3"
		},
		{
			"bufferView":9,
			"componentType":5126,
			"count":15872,
			"type":"VEC3"
		},
		{
			"bufferView":10,
			"componentType":5126,
			"count":15872,
			"type":"VEC2"
		},
		{
			"bufferView":11,
			"componentType":5123,
			"count":23808,
			"type":"SCALAR"
		},
		{
			"bufferView":12,
			"componentType":5126,
			"count":3704,
			"max":[
				26.151241302490234,
				10.331451416015625,
				21.1057186126709
			],
			"min":[
				-23.34654998779297,
				-13.046347618103027,
				-59.949459075927734
			],
			"type":"VEC3"
		},
		{
			"bufferView":13,
			"componentType":5126,
			"count":3704,
			"type":"VEC3"
		},
		{
			"bufferView":14,
			"componentType":5126,
			"count":3704,
			"type":"VEC2"
		},
		{
			"bufferView":15,
			"componentType":5123,
			"count":4110,
			"type":"SCALAR"
		},
		{
			"bufferView":16,
			"componentType":5126,
			"count":1610,
			"max":[
				60,
				60,
				52.48501205444336
			],
			"min":[
				-60,
				-60,
				-67.5149917602539
			],
			"type":"VEC3"
		},
		{
			"bufferView":17,
			"componentType":5126,
			"count":1610,
			"type":"VEC3"
		},
		{
			"bufferView":18,
			"componentType":5126,
			"count":1610,
			"type":"VEC2"
		},
		{
			"bufferView":19,
			"componentType":5123,
			"count":1800,
			"type":"SCALAR"
		},
		{
			"bufferView":20,
			"componentType":5126,
			"count":1464,
			"max":[
				31.88583755493164,
				8.824888229370117,
				-0.7152748107910156
			],
			"min":[
				-22.711997985839844,
				-21.934070587158203,
				-89.65007781982422
			],
			"type":"VEC3"
		},
		{
			"bufferView":21,
			"componentType":5126,
			"count":1464,
			"type":"VEC3"
		},
		{
			"bufferView":22,
			"componentType":5123,
			"count":1464,
			"type":"SCALAR"
		},
		{
			"bufferView":23,
			"componentType":5126,
			"count":62,
			"max":[
				0.36925208568573,
				2.5943408012390137,
				0.36925208568573
			],
			"min":[
				-0.3838673233985901,
				-2.5942676067352295,
				-0.377895325422287
			],
			"type":"VEC3"
		},
		{
			"bufferView":24,
			"componentType":5126,
			"count":62,
			"type":"VEC3"
		},
		{
			"bufferView":25,
			"componentType":5126,
			"count":62,
			"type":"VEC2"
		},
		{
			"bufferView":26,
			"componentType":5123,
			"count":96,
			"type":"SCALAR"
		}
	],
	"bufferViews":[
		{
			"buffer":0,
			"byteLength":756,
			"byteOffset":0,
			"target":34962
		},
		{
			"buffer":0,
			"byteLength":756,
			"byteOffset":756,
			"target":34962
		},
		{
			"buffer":0,
			"byteLength":504,
			"byteOffset":1512,
			"target":34962
		},
		{
			"buffer":0,
			"byteLength":480,
			"byteOffset":2016,
			"target":34963
		},
		{
			"buffer":0,
			"byteLength":27648,
			"byteOffset":2496,
			"target":34962
		},
		{
			"buffer":0,
			"byteLength":27648,
			"byteOffset":30144,
			"target":34962
		},
		{
			"buffer":0,
			"byteLength":18432,
			"byteOffset":57792,
			"target":34962
		},
		{
			"buffer":0,
			"byteLength":6912,
			"byteOffset":76224,
			"target":34963
		},
		{
			"buffer":0,
			"byteLength":190464,
			"byteOffset":83136,
			"target":34962
		},
		{
			"buffer":0,
			"byteLength":190464,
			"byteOffset":273600,
			"target":34962
		},
		{
			"buffer":0,
			"byteLength":126976,
			"byteOffset":464064,
			"target":34962
		},
		{
			"buffer":0,
			"byteLength":47616,
			"byteOffset":591040,
			"target":34963
		},
		{
			"buffer":0,
			"byteLength":44448,
			"byteOffset":638656,
			"target":34962
		},
		{
			"buffer":0,
			"byteLength":44448,
			"byteOffset":683104,
			"target":34962
		},
		{
			"buffer":0,
			"byteLength":29632,
			"byteOffset":727552,
			"target":34962
		},
		{
			"buffer":0,
			"byteLength":8220,
			"byteOffset":757184,
			"target":34963
		},
		{
			"buffer":0,
			"byteLength":19320,
			"byteOffset":765404,
			"target":34962
		},
		{
			"buffer":0,
			"byteLength":19320,
			"byteOffset":784724,
			"target":34962
		},
		{
			"buffer":0,
			"byteLength":12880,
			"byteOffset":804044,
			"target":34962
		},
		{
			"buffer":0,
			"byteLength":3600,
			"byteOffset":816924,
			"target":34963
		},
		{
			"buffer":0,
			"byteLength":17568,
			"byteOffset":820524,
			"target":34962
		},
		{
			"buffer":0,
			"byteLength":17568,
			"byteOffset":838092,
			"target":34962
		},
		{
			"buffer":0,
			"byteLength":2928,
			"byteOffset":855660,
			"target":34963
		},
		{
			"buffer":0,
			"byteLength":744,
			"byteOffset":858588,
			"target":34962
		},
		{
			"buffer":0,
			"byteLength":744,
			"byteOffset":859332,
			"target":34962
		},
		{
			"buffer":0,
			"byteLength":496,
			"byteOffset":860076,
			"target":34962
		},
		{
			"buffer":0,
			"byteLength":192,
			"byteOffset":860572,
			"target":34963
		}
	],
	"buffers":[
		{
			"byteLength":860764,
			"uri":"crystal_cave.bin"
		}
	]
}
