{
	"asset":{
		"generator":"Khronos glTF Blender I/O v4.3.47",
		"version":"2.0"
	},
	"scene":0,
	"scenes":[
		{
			"name":"Scene",
			"nodes":[
				0,
				1,
				7,
				15
			]
		}
	],
	"nodes":[
		{
			"mesh":0,
			"name":"Icosphere",
			"rotation":[
				0,
				0.7071067094802856,
				0,
				0.7071068286895752
			],
			"translation":[
				-0.010495483875274658,
				0,
				-0.0035300254821777344
			]
		},
		{
			"mesh":1,
			"name":"Icosphere.001",
			"rotation":[
				0,
				0.7071067094802856,
				0,
				0.7071068286895752
			],
			"scale":[
				4.4210944175720215,
				1,
				2.38015079498291
			],
			"translation":[
				-0.03919482231140137,
				-1.323655128479004,
				2.4615042209625244
			]
		},
		{
			"name":"r__a_Bone.001_r",
			"rotation":[
				-0.005533916410058737,
				5.952416159971108e-08,
				0.00024896959075704217,
				0.9999846816062927
			],
			"scale":[
				1,
				0.9999999403953552,
				0.9999999403953552
			],
			"translation":[
				-8.138863449858036e-08,
				1.8138571977615356,
				4.383809937280603e-08
			]
		},
		{
			"children":[
				2
			],
			"name":"Bone_r",
			"rotation":[
				-0.4983128607273102,
				0.49806222319602966,
				-0.501929521560669,
				0.5016822218894958
			],
			"scale":[
				0.9999999403953552,
				0.9999998807907104,
				1
			],
			"translation":[
				1.3203318119049072,
				-1.3125967979431152,
				-0.7190775871276855
			]
		},
		{
			"name":"r__a_Bone.001_l",
			"rotation":[
				-0.005533916410058737,
				-5.952416159971108e-08,
				-0.00024896959075704217,
				0.9999846816062927
			],
			"scale":[
				1,
				0.9999999403953552,
				0.9999999403953552
			],
			"translation":[
				8.138863449858036e-08,
				1.8138571977615356,
				4.383809937280603e-08
			]
		},
		{
			"children":[
				4
			],
			"name":"Bone_l",
			"rotation":[
				-0.4983128607273102,
				-0.49806222319602966,
				0.501929521560669,
				0.5016822218894958
			],
			"scale":[
				0.9999999403953552,
				0.9999998807907104,
				1
			],
			"translation":[
				-1.3203318119049072,
				-1.3125967979431152,
				-0.7190775871276855
			]
		},
		{
			"mesh":2,
			"name":"Icosphere.003",
			"skin":0
		},
		{
			"children":[
				6,
				3,
				5
			],
			"name":"Armature"
		},
		{
			"name":"r_l_Bone.002_r",
			"rotation":[
				-0.00597546948119998,
				-5.410983249021228e-06,
				0.0013081692159175873,
				0.9999812841415405
			],
			"scale":[
				1,
				0.9999998807907104,
				1
			],
			"translation":[
				3.15834327579978e-08,
				3.010146379470825,
				-5.048826423603714e-08
			]
		},
		{
			"children":[
				8
			],
			"name":"r_l_Bone.001_r",
			"rotation":[
				3.3479189198715176e-08,
				6.255914541952734e-08,
				-0.0006583491922356188,
				0.9999998211860657
			],
			"scale":[
				0.9999999403953552,
				0.9999999403953552,
				1
			],
			"translation":[
				-2.2284950773610035e-08,
				2.8703975677490234,
				1.5083287507877685e-08
			]
		},
		{
			"children":[
				9
			],
			"name":"r_l_Bone_r",
			"rotation":[
				0.4992690086364746,
				0.5007298588752747,
				0.4992690086364746,
				0.500730037689209
			],
			"scale":[
				0.9999998807907104,
				0.9999997019767761,
				0.9999998807907104
			],
			"translation":[
				0.9552899599075317,
				-1.3136470317840576,
				3.642625570297241
			]
		},
		{
			"name":"r_l_Bone.002_l",
			"rotation":[
				-0.00597546948119998,
				5.410983249021228e-06,
				-0.0013081692159175873,
				0.9999812841415405
			],
			"scale":[
				1,
				0.9999998807907104,
				1
			],
			"translation":[
				-3.15834327579978e-08,
				3.010146379470825,
				-5.048826423603714e-08
			]
		},
		{
			"children":[
				11
			],
			"name":"r_l_Bone.001_l",
			"rotation":[
				3.3479189198715176e-08,
				-6.255914541952734e-08,
				0.0006583491922356188,
				0.9999998211860657
			],
			"scale":[
				0.9999999403953552,
				0.9999999403953552,
				1
			],
			"translation":[
				2.2284950773610035e-08,
				2.8703975677490234,
				1.5083287507877685e-08
			]
		},
		{
			"children":[
				12
			],
			"name":"r_l_Bone_l",
			"rotation":[
				0.4992690086364746,
				-0.5007298588752747,
				-0.4992690086364746,
				0.500730037689209
			],
			"scale":[
				0.9999998807907104,
				0.9999997019767761,
				0.9999998807907104
			],
			"translation":[
				-0.9552899599075317,
				-1.3136470317840576,
				3.642625570297241
			]
		},
		{
			"mesh":3,
			"name":"Icosphere.002",
			"skin":1
		},
		{
			"children":[
				14,
				10,
				13
			],
			"name":"Armature.001"
		}
	],
	"animations":[
		{
			"channels":[
				{
					"sampler":0,
					"target":{
						"node":1,
						"path":"translation"
					}
				},
				{
					"sampler":1,
					"target":{
						"node":1,
						"path":"rotation"
					}
				},
				{
					"sampler":2,
					"target":{
						"node":1,
						"path":"scale"
					}
				}
			],
			"name":"Icosphere.001Action.001",
			"samplers":[
				{
					"input":22,
					"interpolation":"LINEAR",
					"output":23
				},
				{
					"input":24,
					"interpolation":"STEP",
					"output":25
				},
				{
					"input":22,
					"interpolation":"LINEAR",
					"output":26
				}
			]
		},
		{
			"channels":[
				{
					"sampler":0,
					"target":{
						"node":3,
						"path":"translation"
					}
				},
				{
					"sampler":1,
					"target":{
						"node":3,
						"path":"rotation"
					}
				},
				{
					"sampler":2,
					"target":{
						"node":3,
						"path":"scale"
					}
				},
				{
					"sampler":3,
					"target":{
						"node":2,
						"path":"translation"
					}
				},
				{
					"sampler":4,
					"target":{
						"node":2,
						"path":"rotation"
					}
				},
				{
					"sampler":5,
					"target":{
						"node":2,
						"path":"scale"
					}
				},
				{
					"sampler":6,
					"target":{
						"node":5,
						"path":"translation"
					}
				},
				{
					"sampler":7,
					"target":{
						"node":5,
						"path":"rotation"
					}
				},
				{
					"sampler":8,
					"target":{
						"node":5,
						"path":"scale"
					}
				},
				{
					"sampler":9,
					"target":{
						"node":4,
						"path":"translation"
					}
				},
				{
					"sampler":10,
					"target":{
						"node":4,
						"path":"rotation"
					}
				},
				{
					"sampler":11,
					"target":{
						"node":4,
						"path":"scale"
					}
				}
			],
			"name":"ArmatureAction",
			"samplers":[
				{
					"input":27,
					"interpolation":"STEP",
					"output":28
				},
				{
					"input":29,
					"interpolation":"LINEAR",
					"output":30
				},
				{
					"input":27,
					"interpolation":"STEP",
					"output":31
				},
				{
					"input":27,
					"interpolation":"LINEAR",
					"output":32
				},
				{
					"input":29,
					"interpolation":"LINEAR",
					"output":33
				},
				{
					"input":27,
					"interpolation":"LINEAR",
					"output":34
				},
				{
					"input":27,
					"interpolation":"STEP",
					"output":35
				},
				{
					"input":29,
					"interpolation":"LINEAR",
					"output":36
				},
				{
					"input":27,
					"interpolation":"LINEAR",
					"output":37
				},
				{
					"input":27,
					"interpolation":"LINEAR",
					"output":38
				},
				{
					"input":29,
					"interpolation":"LINEAR",
					"output":39
				},
				{
					"input":27,
					"interpolation":"LINEAR",
					"output":40
				}
			]
		},
		{
			"channels":[
				{
					"sampler":0,
					"target":{
						"node":10,
						"path":"translation"
					}
				},
				{
					"sampler":1,
					"target":{
						"node":10,
						"path":"rotation"
					}
				},
				{
					"sampler":2,
					"target":{
						"node":10,
						"path":"scale"
					}
				},
				{
					"sampler":3,
					"target":{
						"node":9,
						"path":"translation"
					}
				},
				{
					"sampler":4,
					"target":{
						"node":9,
						"path":"rotation"
					}
				},
				{
					"sampler":5,
					"target":{
						"node":9,
						"path":"scale"
					}
				},
				{
					"sampler":6,
					"target":{
						"node":8,
						"path":"translation"
					}
				},
				{
					"sampler":7,
					"target":{
						"node":8,
						"path":"rotation"
					}
				},
				{
					"sampler":8,
					"target":{
						"node":8,
						"path":"scale"
					}
				},
				{
					"sampler":9,
					"target":{
						"node":13,
						"path":"translation"
					}
				},
				{
					"sampler":10,
					"target":{
						"node":13,
						"path":"rotation"
					}
				},
				{
					"sampler":11,
					"target":{
						"node":13,
						"path":"scale"
					}
				},
				{
					"sampler":12,
					"target":{
						"node":12,
						"path":"translation"
					}
				},
				{
					"sampler":13,
					"target":{
						"node":12,
						"path":"rotation"
					}
				},
				{
					"sampler":14,
					"target":{
						"node":12,
						"path":"scale"
					}
				},
				{
					"sampler":15,
					"target":{
						"node":11,
						"path":"translation"
					}
				},
				{
					"sampler":16,
					"target":{
						"node":11,
						"path":"rotation"
					}
				},
				{
					"sampler":17,
					"target":{
						"node":11,
						"path":"scale"
					}
				}
			],
			"name":"leg_swim",
			"samplers":[
				{
					"input":24,
					"interpolation":"STEP",
					"output":41
				},
				{
					"input":22,
					"interpolation":"LINEAR",
					"output":42
				},
				{
					"input":24,
					"interpolation":"STEP",
					"output":43
				},
				{
					"input":24,
					"interpolation":"STEP",
					"output":44
				},
				{
					"input":22,
					"interpolation":"LINEAR",
					"output":45
				},
				{
					"input":24,
					"interpolation":"STEP",
					"output":46
				},
				{
					"input":24,
					"interpolation":"STEP",
					"output":47
				},
				{
					"input":22,
					"interpolation":"LINEAR",
					"output":48
				},
				{
					"input":24,
					"interpolation":"STEP",
					"output":49
				},
				{
					"input":24,
					"interpolation":"STEP",
					"output":50
				},
				{
					"input":22,
					"interpolation":"LINEAR",
					"output":51
				},
				{
					"input":24,
					"interpolation":"STEP",
					"output":52
				},
				{
					"input":24,
					"interpolation":"STEP",
					"output":53
				},
				{
					"input":22,
					"interpolation":"LINEAR",
					"output":54
				},
				{
					"input":24,
					"interpolation":"STEP",
					"output":55
				},
				{
					"input":24,
					"interpolation":"STEP",
					"output":56
				},
				{
					"input":22,
					"interpolation":"LINEAR",
					"output":57
				},
				{
					"input":24,
					"interpolation":"STEP",
					"output":58
				}
			]
		}
	],
	"meshes":[
		{
			"name":"Icosphere",
			"primitives":[
				{
					"attributes":{
						"POSITION":0,
						"NORMAL":1,
						"TEXCOORD_0":2
					},
					"indices":3
				}
			]
		},
		{
			"name":"Icosphere.001",
			"primitives":[
				{
					"attributes":{
						"POSITION":4,
						"NORMAL":5,
						"TEXCOORD_0":6
					},
					"indices":7
				}
			]
		},
		{
			"name":"Icosphere.003",
			"primitives":[
				{
					"attributes":{
						"POSITION":8,
						"NORMAL":9,
						"TEXCOORD_0":10,
						"JOINTS_0":11,
						"WEIGHTS_0":12
					},
					"indices":13
				}
			]
		},
		{
			"name":"Icosphere.002",
			"primitives":[
				{
					"attributes":{
						"POSITION":15,
						"NORMAL":16,
						"TEXCOORD_0":17,
						"JOINTS_0":18,
						"WEIGHTS_0":19
					},
					"indices":20
				}
			]
		}
	],
	"skins":[
		{
			"inverseBindMatrices":14,
			"joints":[
				3,
				2,
				5,
				4
			],
			"name":"Armature"
		},
		{
			"inverseBindMatrices":21,
			"joints":[
				10,
				9,
				8,
				13,
				12,
				11
			],
			"name":"Armature.001"
		}
	],
	"accessors":[
		{
			"bufferView":0,
			"componentType":5126,
			"count":960,
			"max":[
				0.39097341895103455,
				1,
				1.8959221839904785
			],
			"min":[
				-0.29867979884147644,
				-1,
				-1.8959221839904785
			],
			"type":"VEC3"
		},
		{
			"bufferView":1,
			"componentType":5126,
			"count":960,
			"type":"VEC3"
		},
		{
			"bufferView":2,
			"componentType":5126,
			"count":960,
			"type":"VEC2"
		},
		{
			"bufferView":3,
			"componentType":5123,
			"count":960,
			"type":"SCALAR"
		},
		{
			"bufferView":4,
			"componentType":5126,
			"count":240,
			"max":[
				0.9510578513145447,
				1,
				0.9999999403953552
			],
			"min":[
				-0.3463413119316101,
				-1.1474308967590332,
				-0.9999999403953552
			],
			"type":"VEC3"
		},
		{
			"bufferView":5,
			"componentType":5126,
			"count":240,
			"type":"VEC3"
		},
		{
			"bufferView":6,
			"componentType":5126,
			"count":240,
			"type":"VEC2"
		},
		{
			"bufferView":7,
			"componentType":5123,
			"count":240,
			"type":"SCALAR"
		},
		{
			"bufferView":8,
			"componentType":5126,
			"count":2208,
			"max":[
				1.7232730388641357,
				-1.2431076765060425,
				-0.7698922157287598
			],
			"min":[
				-1.7442630529403687,
				-1.3806042671203613,
				-4.629631996154785
			],
			"type":"VEC3"
		},
		{
			"bufferView":9,
			"componentType":5126,
			"count":2208,
			"type":"VEC3"
		},
		{
			"bufferView":10,
			"componentType":5126,
			"count":2208,
			"type":"VEC2"
		},
		{
			"bufferView":11,
			"componentType":5121,
			"count":2208,
			"type":"VEC4"
		},
		{
			"bufferView":12,
			"componentType":5126,
			"count":2208,
			"type":"VEC4"
		},
		{
			"bufferView":13,
			"componentType":5123,
			"count":3336,
			"type":"SCALAR"
		},
		{
			"bufferView":14,
			"componentType":5126,
			"count":4,
			"type":"MAT4"
		},
		{
			"bufferView":15,
			"componentType":5126,
			"count":2488,
			"max":[
				1.4835203886032104,
				-1.262342095375061,
				10.19919490814209
			],
			"min":[
				-1.5045140981674194,
				-1.4110318422317505,
				3.412099838256836
			],
			"type":"VEC3"
		},
		{
			"bufferView":16,
			"componentType":5126,
			"count":2488,
			"type":"VEC3"
		},
		{
			"bufferView":17,
			"componentType":5126,
			"count":2488,
			"type":"VEC2"
		},
		{
			"bufferView":18,
			"componentType":5121,
			"count":2488,
			"type":"VEC4"
		},
		{
			"bufferView":19,
			"componentType":5126,
			"count":2488,
			"type":"VEC4"
		},
		{
			"bufferView":20,
			"componentType":5123,
			"count":4104,
			"type":"SCALAR"
		},
		{
			"bufferView":21,
			"componentType":5126,
			"count":6,
			"type":"MAT4"
		},
		{
			"bufferView":22,
			"componentType":5126,
			"count":60,
			"max":[
				2.5
			],
			"min":[
				0.041666666666666664
			],
			"type":"SCALAR"
		},
		{
			"bufferView":23,
			"componentType":5126,
			"count":60,
			"type":"VEC3"
		},
		{
			"bufferView":24,
			"componentType":5126,
			"count":2,
			"max":[
				2.5
			],
			"min":[
				0.041666666666666664
			],
			"type":"SCALAR"
		},
		{
			"bufferView":25,
			"componentType":5126,
			"count":2,
			"type":"VEC4"
		},
		{
			"bufferView":26,
			"componentType":5126,
			"count":60,
			"type":"VEC3"
		},
		{
			"bufferView":27,
			"componentType":5126,
			"count":2,
			"max":[
				2.5
			],
			"min":[
				0
			],
			"type":"SCALAR"
		},
		{
			"bufferView":28,
			"componentType":5126,
			"count":2,
			"type":"VEC3"
		},
		{
			"bufferView":29,
			"componentType":5126,
			"count":61,
			"max":[
				2.5
			],
			"min":[
				0
			],
			"type":"SCALAR"
		},
		{
			"bufferView":30,
			"componentType":5126,
			"count":61,
			"type":"VEC4"
		},
		{
			"bufferView":31,
			"componentType":5126,
			"count":2,
			"type":"VEC3"
		},
		{
			"bufferView":32,
			"componentType":5126,
			"count":2,
			"type":"VEC3"
		},
		{
			"bufferView":33,
			"componentType":5126,
			"count":61,
			"type":"VEC4"
		},
		{
			"bufferView":34,
			"componentType":5126,
			"count":2,
			"type":"VEC3"
		},
		{
			"bufferView":35,
			"componentType":5126,
			"count":2,
			"type":"VEC3"
		},
		{
			"bufferView":36,
			"componentType":5126,
			"count":61,
			"type":"VEC4"
		},
		{
			"bufferView":37,
			"componentType":5126,
			"count":2,
			"type":"VEC3"
		},
		{
			"bufferView":38,
			"componentType":5126,
			"count":2,
			"type":"VEC3"
		},
		{
			"bufferView":39,
			"componentType":5126,
			"count":61,
			"type":"VEC4"
		},
		{
			"bufferView":40,
			"componentType":5126,
			"count":2,
			"type":"VEC3"
		},
		{
			"bufferView":41,
			"componentType":5126,
			"count":2,
			"type":"VEC3"
		},
		{
			"bufferView":42,
			"componentType":5126,
			"count":60,
			"type":"VEC4"
		},
		{
			"bufferView":43,
			"componentType":5126,
			"count":2,
			"type":"VEC3"
		},
		{
			"bufferView":44,
			"componentType":5126,
			"count":2,
			"type":"VEC3"
		},
		{
			"bufferView":45,
			"componentType":5126,
			"count":60,
			"type":"VEC4"
		},
		{
			"bufferView":46,
			"componentType":5126,
			"count":2,
			"type":"VEC3"
		},
		{
			"bufferView":47,
			"componentType":5126,
			"count":2,
			"type":"VEC3"
		},
		{
			"bufferView":48,
			"componentType":5126,
			"count":60,
			"type":"VEC4"
		},
		{
			"bufferView":49,
			"componentType":5126,
			"count":2,
			"type":"VEC3"
		},
		{
			"bufferView":50,
			"componentType":5126,
			"count":2,
			"type":"VEC3"
		},
		{
			"bufferView":51,
			"componentType":5126,
			"count":60,
			"type":"VEC4"
		},
		{
			"bufferView":52,
			"componentType":5126,
			"count":2,
			"type":"VEC3"
		},
		{
			"bufferView":53,
			"componentType":5126,
			"count":2,
			"type":"VEC3"
		},
		{
			"bufferView":54,
			"componentType":5126,
			"count":60,
			"type":"VEC4"
		},
		{
			"bufferView":55,
			"componentType":5126,
			"count":2,
			"type":"VEC3"
		},
		{
			"bufferView":56,
			"componentType":5126,
			"count":2,
			"type":"VEC3"
		},
		{
			"bufferView":57,
			"componentType":5126,
			"count":60,
			"type":"VEC4"
		},
		{
			"bufferView":58,
			"componentType":5126,
			"count":2,
			"type":"VEC3"
		}
	],
	"bufferViews":[
		{
			"buffer":0,
			"byteLength":11520,
			"byteOffset":0,
			"target":34962
		},
		{
			"buffer":0,
			"byteLength":11520,
			"byteOffset":11520,
			"target":34962
		},
		{
			"buffer":0,
			"byteLength":7680,
			"byteOffset":23040,
			"target":34962
		},
		{
			"buffer":0,
			"byteLength":1920,
			"byteOffset":30720,
			"target":34963
		},
		{
			"buffer":0,
			"byteLength":2880,
			"byteOffset":32640,
			"target":34962
		},
		{
			"buffer":0,
			"byteLength":2880,
			"byteOffset":35520,
			"target":34962
		},
		{
			"buffer":0,
			"byteLength":1920,
			"byteOffset":38400,
			"target":34962
		},
		{
			"buffer":0,
			"byteLength":480,
			"byteOffset":40320,
			"target":34963
		},
		{
			"buffer":0,
			"byteLength":26496,
			"byteOffset":40800,
			"target":34962
		},
		{
			"buffer":0,
			"byteLength":26496,
			"byteOffset":67296,
			"target":34962
		},
		{
			"buffer":0,
			"byteLength":17664,
			"byteOffset":93792,
			"target":34962
		},
		{
			"buffer":0,
			"byteLength":8832,
			"byteOffset":111456,
			"target":34962
		},
		{
			"buffer":0,
			"byteLength":35328,
			"byteOffset":120288,
			"target":34962
		},
		{
			"buffer":0,
			"byteLength":6672,
			"byteOffset":155616,
			"target":34963
		},
		{
			"buffer":0,
			"byteLength":256,
			"byteOffset":162288
		},
		{
			"buffer":0,
			"byteLength":29856,
			"byteOffset":162544,
			"target":34962
		},
		{
			"buffer":0,
			"byteLength":29856,
			"byteOffset":192400,
			"target":34962
		},
		{
			"buffer":0,
			"byteLength":19904,
			"byteOffset":222256,
			"target":34962
		},
		{
			"buffer":0,
			"byteLength":9952,
			"byteOffset":242160,
			"target":34962
		},
		{
			"buffer":0,
			"byteLength":39808,
			"byteOffset":252112,
			"target":34962
		},
		{
			"buffer":0,
			"byteLength":8208,
			"byteOffset":291920,
			"target":34963
		},
		{
			"buffer":0,
			"byteLength":384,
			"byteOffset":300128
		},
		{
			"buffer":0,
			"byteLength":240,
			"byteOffset":300512
		},
		{
			"buffer":0,
			"byteLength":720,
			"byteOffset":300752
		},
		{
			"buffer":0,
			"byteLength":8,
			"byteOffset":301472
		},
		{
			"buffer":0,
			"byteLength":32,
			"byteOffset":301480
		},
		{
			"buffer":0,
			"byteLength":720,
			"byteOffset":301512
		},
		{
			"buffer":0,
			"byteLength":8,
			"byteOffset":302232
		},
		{
			"buffer":0,
			"byteLength":24,
			"byteOffset":302240
		},
		{
			"buffer":0,
			"byteLength":244,
			"byteOffset":302264
		},
		{
			"buffer":0,
			"byteLength":976,
			"byteOffset":302508
		},
		{
			"buffer":0,
			"byteLength":24,
			"byteOffset":303484
		},
		{
			"buffer":0,
			"byteLength":24,
			"byteOffset":303508
		},
		{
			"buffer":0,
			"byteLength":976,
			"byteOffset":303532
		},
		{
			"buffer":0,
			"byteLength":24,
			"byteOffset":304508
		},
		{
			"buffer":0,
			"byteLength":24,
			"byteOffset":304532
		},
		{
			"buffer":0,
			"byteLength":976,
			"byteOffset":304556
		},
		{
			"buffer":0,
			"byteLength":24,
			"byteOffset":305532
		},
		{
			"buffer":0,
			"byteLength":24,
			"byteOffset":305556
		},
		{
			"buffer":0,
			"byteLength":976,
			"byteOffset":305580
		},
		{
			"buffer":0,
			"byteLength":24,
			"byteOffset":306556
		},
		{
			"buffer":0,
			"byteLength":24,
			"byteOffset":306580
		},
		{
			"buffer":0,
			"byteLength":960,
			"byteOffset":306604
		},
		{
			"buffer":0,
			"byteLength":24,
			"byteOffset":307564
		},
		{
			"buffer":0,
			"byteLength":24,
			"byteOffset":307588
		},
		{
			"buffer":0,
			"byteLength":960,
			"byteOffset":307612
		},
		{
			"buffer":0,
			"byteLength":24,
			"byteOffset":308572
		},
		{
			"buffer":0,
			"byteLength":24,
			"byteOffset":308596
		},
		{
			"buffer":0,
			"byteLength":960,
			"byteOffset":308620
		},
		{
			"buffer":0,
			"byteLength":24,
			"byteOffset":309580
		},
		{
			"buffer":0,
			"byteLength":24,
			"byteOffset":309604
		},
		{
			"buffer":0,
			"byteLength":960,
			"byteOffset":309628
		},
		{
			"buffer":0,
			"byteLength":24,
			"byteOffset":310588
		},
		{
			"buffer":0,
			"byteLength":24,
			"byteOffset":310612
		},
		{
			"buffer":0,
			"byteLength":960,
			"byteOffset":310636
		},
		{
			"buffer":0,
			"byteLength":24,
			"byteOffset":311596
		},
		{
			"buffer":0,
			"byteLength":24,
			"byteOffset":311620
		},
		{
			"buffer":0,
			"byteLength":960,
			"byteOffset":311644
		},
		{
			"buffer":0,
			"byteLength":24,
			"byteOffset":312604
		}
	],
	"buffers":[
		{
			"byteLength":312628,
			"uri":"frog-fix-1.bin"
		}
	]
}
