{
	"asset":{
		"generator":"Khronos glTF Blender I/O v4.3.47",
		"version":"2.0"
	},
	"scene":0,
	"scenes":[
		{
			"name":"Scene",
			"nodes":[
				0,
				1,
				5,
				10
			]
		}
	],
	"nodes":[
		{
			"mesh":0,
			"name":"Icosphere"
		},
		{
			"mesh":1,
			"name":"Icosphere.001",
			"scale":[
				4.4210944175720215,
				1,
				2.38015079498291
			],
			"translation":[
				-2.3952062129974365,
				-1.323655128479004,
				0
			]
		},
		{
			"name":"Bone.001",
			"rotation":[
				-0.005533913616091013,
				8.647324634125653e-09,
				0.0002489822800271213,
				0.9999846816062927
			],
			"scale":[
				1,
				1,
				0.9999999403953552
			],
			"translation":[
				2.0397055777721107e-07,
				1.8138574361801147,
				-3.612012733356096e-08
			]
		},
		{
			"children":[
				2
			],
			"name":"Bone",
			"rotation":[
				0.00361826503649354,
				-1.4126040071005264e-07,
				0.00020261133613530546,
				0.9999934434890747
			],
			"scale":[
				1,
				0.9999998807907104,
				0.9999999403953552
			],
			"translation":[
				2.9691491931771452e-08,
				2.5324226271550287e-08,
				3.4247754854277446e-08
			]
		},
		{
			"mesh":2,
			"name":"Icosphere.004",
			"skin":0
		},
		{
			"children":[
				4,
				3
			],
			"name":"Armature",
			"rotation":[
				0,
				0,
				-0.7074260115623474,
				0.7067874073982239
			],
			"translation":[
				0.7155476808547974,
				-1.3125967979431152,
				1.3308273553848267
			]
		},
		{
			"name":"Bone.002",
			"rotation":[
				-0.00597548671066761,
				-5.429104476206703e-06,
				0.0013081686338409781,
				0.9999812841415405
			],
			"scale":[
				1,
				0.9999999403953552,
				1
			],
			"translation":[
				-1.5338056158498148e-08,
				3.0101468563079834,
				-5.1686921409555e-09
			]
		},
		{
			"children":[
				6
			],
			"name":"Bone.001",
			"rotation":[
				4.184342117241613e-08,
				1.0352945167824146e-07,
				-0.0006583486683666706,
				0.9999998211860657
			],
			"scale":[
				0.9999999403953552,
				0.9999999403953552,
				1
			],
			"translation":[
				7.605677865285543e-09,
				2.8703978061676025,
				-7.918922051430854e-08
			]
		},
		{
			"children":[
				7
			],
			"name":"Bone",
			"rotation":[
				3.2139439554157434e-08,
				-1.0619991286375807e-07,
				0.7060730457305908,
				0.7081391215324402
			],
			"scale":[
				0.9999998211860657,
				0.9999997019767761,
				0.9999998807907104
			],
			"translation":[
				-3.646155595779419,
				-1.3136470317840576,
				0.9657857418060303
			]
		},
		{
			"mesh":3,
			"name":"Icosphere.002",
			"skin":1
		},
		{
			"children":[
				9,
				8
			],
			"name":"Armature.001"
		}
	],
	"animations":[
		{
			"channels":[
				{
					"sampler":0,
					"target":{
						"node":1,
						"path":"translation"
					}
				},
				{
					"sampler":1,
					"target":{
						"node":1,
						"path":"rotation"
					}
				},
				{
					"sampler":2,
					"target":{
						"node":1,
						"path":"scale"
					}
				}
			],
			"name":"Icosphere.001Action",
			"samplers":[
				{
					"input":22,
					"interpolation":"LINEAR",
					"output":23
				},
				{
					"input":24,
					"interpolation":"STEP",
					"output":25
				},
				{
					"input":22,
					"interpolation":"LINEAR",
					"output":26
				}
			]
		},
		{
			"channels":[
				{
					"sampler":0,
					"target":{
						"node":3,
						"path":"translation"
					}
				},
				{
					"sampler":1,
					"target":{
						"node":3,
						"path":"rotation"
					}
				},
				{
					"sampler":2,
					"target":{
						"node":3,
						"path":"scale"
					}
				},
				{
					"sampler":3,
					"target":{
						"node":2,
						"path":"translation"
					}
				},
				{
					"sampler":4,
					"target":{
						"node":2,
						"path":"rotation"
					}
				},
				{
					"sampler":5,
					"target":{
						"node":2,
						"path":"scale"
					}
				}
			],
			"name":"ArmatureAction",
			"samplers":[
				{
					"input":24,
					"interpolation":"STEP",
					"output":27
				},
				{
					"input":22,
					"interpolation":"LINEAR",
					"output":28
				},
				{
					"input":24,
					"interpolation":"STEP",
					"output":29
				},
				{
					"input":24,
					"interpolation":"STEP",
					"output":30
				},
				{
					"input":22,
					"interpolation":"LINEAR",
					"output":31
				},
				{
					"input":24,
					"interpolation":"STEP",
					"output":32
				}
			]
		},
		{
			"channels":[
				{
					"sampler":0,
					"target":{
						"node":8,
						"path":"translation"
					}
				},
				{
					"sampler":1,
					"target":{
						"node":8,
						"path":"rotation"
					}
				},
				{
					"sampler":2,
					"target":{
						"node":8,
						"path":"scale"
					}
				},
				{
					"sampler":3,
					"target":{
						"node":7,
						"path":"translation"
					}
				},
				{
					"sampler":4,
					"target":{
						"node":7,
						"path":"rotation"
					}
				},
				{
					"sampler":5,
					"target":{
						"node":7,
						"path":"scale"
					}
				},
				{
					"sampler":6,
					"target":{
						"node":6,
						"path":"translation"
					}
				},
				{
					"sampler":7,
					"target":{
						"node":6,
						"path":"rotation"
					}
				},
				{
					"sampler":8,
					"target":{
						"node":6,
						"path":"scale"
					}
				}
			],
			"name":"Swim",
			"samplers":[
				{
					"input":24,
					"interpolation":"STEP",
					"output":33
				},
				{
					"input":22,
					"interpolation":"LINEAR",
					"output":34
				},
				{
					"input":24,
					"interpolation":"STEP",
					"output":35
				},
				{
					"input":24,
					"interpolation":"STEP",
					"output":36
				},
				{
					"input":22,
					"interpolation":"LINEAR",
					"output":37
				},
				{
					"input":24,
					"interpolation":"STEP",
					"output":38
				},
				{
					"input":24,
					"interpolation":"STEP",
					"output":39
				},
				{
					"input":22,
					"interpolation":"LINEAR",
					"output":40
				},
				{
					"input":24,
					"interpolation":"STEP",
					"output":41
				}
			]
		}
	],
	"meshes":[
		{
			"name":"Icosphere",
			"primitives":[
				{
					"attributes":{
						"POSITION":0,
						"NORMAL":1,
						"TEXCOORD_0":2
					},
					"indices":3
				}
			]
		},
		{
			"name":"Icosphere.001",
			"primitives":[
				{
					"attributes":{
						"POSITION":4,
						"NORMAL":5,
						"TEXCOORD_0":6
					},
					"indices":7
				}
			]
		},
		{
			"name":"Icosphere.004",
			"primitives":[
				{
					"attributes":{
						"POSITION":8,
						"NORMAL":9,
						"TEXCOORD_0":10,
						"JOINTS_0":11,
						"WEIGHTS_0":12
					},
					"indices":13
				}
			]
		},
		{
			"name":"Icosphere.002",
			"primitives":[
				{
					"attributes":{
						"POSITION":15,
						"NORMAL":16,
						"TEXCOORD_0":17,
						"JOINTS_0":18,
						"WEIGHTS_0":19
					},
					"indices":20
				}
			]
		}
	],
	"skins":[
		{
			"inverseBindMatrices":14,
			"joints":[
				3,
				2
			],
			"name":"Armature"
		},
		{
			"inverseBindMatrices":21,
			"joints":[
				8,
				7,
				6
			],
			"name":"Armature.001"
		}
	],
	"accessors":[
		{
			"bufferView":0,
			"componentType":5126,
			"count":480,
			"max":[
				0.39097341895103455,
				1,
				1.8959221839904785
			],
			"min":[
				-0.29867979884147644,
				-1,
				0.7496677041053772
			],
			"type":"VEC3"
		},
		{
			"bufferView":1,
			"componentType":5126,
			"count":480,
			"type":"VEC3"
		},
		{
			"bufferView":2,
			"componentType":5126,
			"count":480,
			"type":"VEC2"
		},
		{
			"bufferView":3,
			"componentType":5123,
			"count":480,
			"type":"SCALAR"
		},
		{
			"bufferView":4,
			"componentType":5126,
			"count":240,
			"max":[
				0.9510578513145447,
				1,
				0.9999999403953552
			],
			"min":[
				-0.3463413119316101,
				-1.1474308967590332,
				-0.9999999403953552
			],
			"type":"VEC3"
		},
		{
			"bufferView":5,
			"componentType":5126,
			"count":240,
			"type":"VEC3"
		},
		{
			"bufferView":6,
			"componentType":5126,
			"count":240,
			"type":"VEC2"
		},
		{
			"bufferView":7,
			"componentType":5123,
			"count":240,
			"type":"SCALAR"
		},
		{
			"bufferView":8,
			"componentType":5126,
			"count":1104,
			"max":[
				4.626101970672607,
				-1.243107795715332,
				1.7337678670883179
			],
			"min":[
				0.7663624882698059,
				-1.3806042671203613,
				0.9598464965820312
			],
			"type":"VEC3"
		},
		{
			"bufferView":9,
			"componentType":5126,
			"count":1104,
			"type":"VEC3"
		},
		{
			"bufferView":10,
			"componentType":5126,
			"count":1104,
			"type":"VEC2"
		},
		{
			"bufferView":11,
			"componentType":5121,
			"count":1104,
			"type":"VEC4"
		},
		{
			"bufferView":12,
			"componentType":5126,
			"count":1104,
			"type":"VEC4"
		},
		{
			"bufferView":13,
			"componentType":5123,
			"count":1668,
			"type":"SCALAR"
		},
		{
			"bufferView":14,
			"componentType":5126,
			"count":2,
			"type":"MAT4"
		},
		{
			"bufferView":15,
			"componentType":5126,
			"count":1242,
			"max":[
				-3.4156301021575928,
				-1.262342095375061,
				1.4940178394317627
			],
			"min":[
				-10.20272445678711,
				-1.4110318422317505,
				0.46047499775886536
			],
			"type":"VEC3"
		},
		{
			"bufferView":16,
			"componentType":5126,
			"count":1242,
			"type":"VEC3"
		},
		{
			"bufferView":17,
			"componentType":5126,
			"count":1242,
			"type":"VEC2"
		},
		{
			"bufferView":18,
			"componentType":5121,
			"count":1242,
			"type":"VEC4"
		},
		{
			"bufferView":19,
			"componentType":5126,
			"count":1242,
			"type":"VEC4"
		},
		{
			"bufferView":20,
			"componentType":5123,
			"count":2052,
			"type":"SCALAR"
		},
		{
			"bufferView":21,
			"componentType":5126,
			"count":3,
			"type":"MAT4"
		},
		{
			"bufferView":22,
			"componentType":5126,
			"count":61,
			"max":[
				2.5
			],
			"min":[
				0
			],
			"type":"SCALAR"
		},
		{
			"bufferView":23,
			"componentType":5126,
			"count":61,
			"type":"VEC3"
		},
		{
			"bufferView":24,
			"componentType":5126,
			"count":2,
			"max":[
				2.5
			],
			"min":[
				0
			],
			"type":"SCALAR"
		},
		{
			"bufferView":25,
			"componentType":5126,
			"count":2,
			"type":"VEC4"
		},
		{
			"bufferView":26,
			"componentType":5126,
			"count":61,
			"type":"VEC3"
		},
		{
			"bufferView":27,
			"componentType":5126,
			"count":2,
			"type":"VEC3"
		},
		{
			"bufferView":28,
			"componentType":5126,
			"count":61,
			"type":"VEC4"
		},
		{
			"bufferView":29,
			"componentType":5126,
			"count":2,
			"type":"VEC3"
		},
		{
			"bufferView":30,
			"componentType":5126,
			"count":2,
			"type":"VEC3"
		},
		{
			"bufferView":31,
			"componentType":5126,
			"count":61,
			"type":"VEC4"
		},
		{
			"bufferView":32,
			"componentType":5126,
			"count":2,
			"type":"VEC3"
		},
		{
			"bufferView":33,
			"componentType":5126,
			"count":2,
			"type":"VEC3"
		},
		{
			"bufferView":34,
			"componentType":5126,
			"count":61,
			"type":"VEC4"
		},
		{
			"bufferView":35,
			"componentType":5126,
			"count":2,
			"type":"VEC3"
		},
		{
			"bufferView":36,
			"componentType":5126,
			"count":2,
			"type":"VEC3"
		},
		{
			"bufferView":37,
			"componentType":5126,
			"count":61,
			"type":"VEC4"
		},
		{
			"bufferView":38,
			"componentType":5126,
			"count":2,
			"type":"VEC3"
		},
		{
			"bufferView":39,
			"componentType":5126,
			"count":2,
			"type":"VEC3"
		},
		{
			"bufferView":40,
			"componentType":5126,
			"count":61,
			"type":"VEC4"
		},
		{
			"bufferView":41,
			"componentType":5126,
			"count":2,
			"type":"VEC3"
		}
	],
	"bufferViews":[
		{
			"buffer":0,
			"byteLength":5760,
			"byteOffset":0,
			"target":34962
		},
		{
			"buffer":0,
			"byteLength":5760,
			"byteOffset":5760,
			"target":34962
		},
		{
			"buffer":0,
			"byteLength":3840,
			"byteOffset":11520,
			"target":34962
		},
		{
			"buffer":0,
			"byteLength":960,
			"byteOffset":15360,
			"target":34963
		},
		{
			"buffer":0,
			"byteLength":2880,
			"byteOffset":16320,
			"target":34962
		},
		{
			"buffer":0,
			"byteLength":2880,
			"byteOffset":19200,
			"target":34962
		},
		{
			"buffer":0,
			"byteLength":1920,
			"byteOffset":22080,
			"target":34962
		},
		{
			"buffer":0,
			"byteLength":480,
			"byteOffset":24000,
			"target":34963
		},
		{
			"buffer":0,
			"byteLength":13248,
			"byteOffset":24480,
			"target":34962
		},
		{
			"buffer":0,
			"byteLength":13248,
			"byteOffset":37728,
			"target":34962
		},
		{
			"buffer":0,
			"byteLength":8832,
			"byteOffset":50976,
			"target":34962
		},
		{
			"buffer":0,
			"byteLength":4416,
			"byteOffset":59808,
			"target":34962
		},
		{
			"buffer":0,
			"byteLength":17664,
			"byteOffset":64224,
			"target":34962
		},
		{
			"buffer":0,
			"byteLength":3336,
			"byteOffset":81888,
			"target":34963
		},
		{
			"buffer":0,
			"byteLength":128,
			"byteOffset":85224
		},
		{
			"buffer":0,
			"byteLength":14904,
			"byteOffset":85352,
			"target":34962
		},
		{
			"buffer":0,
			"byteLength":14904,
			"byteOffset":100256,
			"target":34962
		},
		{
			"buffer":0,
			"byteLength":9936,
			"byteOffset":115160,
			"target":34962
		},
		{
			"buffer":0,
			"byteLength":4968,
			"byteOffset":125096,
			"target":34962
		},
		{
			"buffer":0,
			"byteLength":19872,
			"byteOffset":130064,
			"target":34962
		},
		{
			"buffer":0,
			"byteLength":4104,
			"byteOffset":149936,
			"target":34963
		},
		{
			"buffer":0,
			"byteLength":192,
			"byteOffset":154040
		},
		{
			"buffer":0,
			"byteLength":244,
			"byteOffset":154232
		},
		{
			"buffer":0,
			"byteLength":732,
			"byteOffset":154476
		},
		{
			"buffer":0,
			"byteLength":8,
			"byteOffset":155208
		},
		{
			"buffer":0,
			"byteLength":32,
			"byteOffset":155216
		},
		{
			"buffer":0,
			"byteLength":732,
			"byteOffset":155248
		},
		{
			"buffer":0,
			"byteLength":24,
			"byteOffset":155980
		},
		{
			"buffer":0,
			"byteLength":976,
			"byteOffset":156004
		},
		{
			"buffer":0,
			"byteLength":24,
			"byteOffset":156980
		},
		{
			"buffer":0,
			"byteLength":24,
			"byteOffset":157004
		},
		{
			"buffer":0,
			"byteLength":976,
			"byteOffset":157028
		},
		{
			"buffer":0,
			"byteLength":24,
			"byteOffset":158004
		},
		{
			"buffer":0,
			"byteLength":24,
			"byteOffset":158028
		},
		{
			"buffer":0,
			"byteLength":976,
			"byteOffset":158052
		},
		{
			"buffer":0,
			"byteLength":24,
			"byteOffset":159028
		},
		{
			"buffer":0,
			"byteLength":24,
			"byteOffset":159052
		},
		{
			"buffer":0,
			"byteLength":976,
			"byteOffset":159076
		},
		{
			"buffer":0,
			"byteLength":24,
			"byteOffset":160052
		},
		{
			"buffer":0,
			"byteLength":24,
			"byteOffset":160076
		},
		{
			"buffer":0,
			"byteLength":976,
			"byteOffset":160100
		},
		{
			"buffer":0,
			"byteLength":24,
			"byteOffset":161076
		}
	],
	"buffers":[
		{
			"byteLength":161100,
			"uri":"frog.bin"
		}
	]
}
