{
	"asset":{
		"generator":"Khronos glTF Blender I/O v4.3.47",
		"version":"2.0"
	},
	"scene":0,
	"scenes":[
		{
			"name":"Scene",
			"nodes":[
				0,
				1,
				2,
				3,
				4,
				5,
				6,
				7,
				9
			]
		}
	],
	"nodes":[
		{
			"mesh":0,
			"name":"Cylinder",
			"scale":[
				10,
				1,
				10
			]
		},
		{
			"mesh":1,
			"name":"Cube",
			"rotation":[
				-0.053460851311683655,
				-0.6941690444946289,
				0.05010746791958809,
				0.7160730361938477
			],
			"scale":[
				1.2364592552185059,
				1.2364593744277954,
				1.2364593744277954
			],
			"translation":[
				-0.34965741634368896,
				3.2817654609680176,
				-6.964406490325928
			]
		},
		{
			"mesh":2,
			"name":"Cylinder.001",
			"rotation":[
				0.6533446907997131,
				0.008706227876245975,
				-0.01196940615773201,
				0.7569158673286438
			],
			"scale":[
				1.5554627180099487,
				1.5554627180099487,
				1.5554627180099487
			],
			"translation":[
				-0.30880051851272583,
				5.254671096801758,
				-7.28650426864624
			]
		},
		{
			"mesh":3,
			"name":"Cylinder.002",
			"rotation":[
				0.6203035712242126,
				-0.20137356221675873,
				0.1947794258594513,
				0.7326207756996155
			],
			"scale":[
				1.5554627180099487,
				1.5554627180099487,
				1.5554627180099487
			],
			"translation":[
				4.840905666351318,
				4.975270748138428,
				-6.3396782875061035
			]
		},
		{
			"mesh":4,
			"name":"Cube.001",
			"rotation":[
				-0.05950169637799263,
				-0.8741216659545898,
				0.05280974879860878,
				0.47914716601371765
			],
			"scale":[
				1.2364593744277954,
				1.2364592552185059,
				1.2364593744277954
			],
			"translation":[
				4.6874308586120605,
				3.004897356033325,
				-6.036612033843994
			]
		},
		{
			"mesh":5,
			"name":"Cylinder.003",
			"rotation":[
				0.4876895248889923,
				-0.47837674617767334,
				0.42986851930618286,
				0.5903623700141907
			],
			"scale":[
				1.5554627180099487,
				1.5554627180099487,
				1.5554627180099487
			],
			"translation":[
				7.2413225173950195,
				5.253265857696533,
				-1.9086748361587524
			]
		},
		{
			"mesh":6,
			"name":"Cube.002",
			"rotation":[
				-0.07561403512954712,
				-0.9930742383003235,
				0.02701646462082863,
				0.08576828986406326
			],
			"scale":[
				1.2364593744277954,
				1.2364593744277954,
				1.2364593744277954
			],
			"translation":[
				6.915523052215576,
				3.2831711769104004,
				-1.8069080114364624
			]
		},
		{
			"mesh":7,
			"name":"Icosphere.002",
			"rotation":[
				0,
				-0.5181195735931396,
				0,
				0.8553082346916199
			],
			"scale":[
				5.184262275695801,
				1.3131073713302612,
				3.3682210445404053
			],
			"translation":[
				-3.3628389835357666,
				1.90482497215271,
				0.2821963429450989
			]
		},
		{
			"mesh":8,
			"name":"Cylinder.005",
			"rotation":[
				0,
				0,
				-1,
				0
			],
			"scale":[
				0.5847821235656738,
				12.133926391601562,
				1
			],
			"translation":[
				0,
				-1.4267425537109375,
				0.9876871109008789
			]
		},
		{
			"children":[
				8
			],
			"mesh":9,
			"name":"Cylinder.004",
			"rotation":[
				0,
				1,
				0,
				0
			],
			"scale":[
				-1,
				-0.08241355419158936,
				-1
			],
			"translation":[
				-2.8471298217773438,
				2.1919140815734863,
				2.3597192764282227
			]
		}
	],
	"meshes":[
		{
			"name":"Cylinder",
			"primitives":[
				{
					"attributes":{
						"POSITION":0,
						"NORMAL":1
					},
					"indices":2
				}
			]
		},
		{
			"name":"Cube.001",
			"primitives":[
				{
					"attributes":{
						"POSITION":3,
						"NORMAL":4,
						"TEXCOORD_0":5
					},
					"indices":6
				}
			]
		},
		{
			"name":"Cylinder.001",
			"primitives":[
				{
					"attributes":{
						"POSITION":7,
						"NORMAL":8,
						"TEXCOORD_0":9
					},
					"indices":10
				}
			]
		},
		{
			"name":"Cylinder.002",
			"primitives":[
				{
					"attributes":{
						"POSITION":11,
						"NORMAL":12,
						"TEXCOORD_0":13
					},
					"indices":10
				}
			]
		},
		{
			"name":"Cube.002",
			"primitives":[
				{
					"attributes":{
						"POSITION":14,
						"NORMAL":15,
						"TEXCOORD_0":16
					},
					"indices":6
				}
			]
		},
		{
			"name":"Cylinder.003",
			"primitives":[
				{
					"attributes":{
						"POSITION":17,
						"NORMAL":18,
						"TEXCOORD_0":19
					},
					"indices":10
				}
			]
		},
		{
			"name":"Cube.003",
			"primitives":[
				{
					"attributes":{
						"POSITION":20,
						"NORMAL":21,
						"TEXCOORD_0":22
					},
					"indices":6
				}
			]
		},
		{
			"name":"Icosphere.002",
			"primitives":[
				{
					"attributes":{
						"POSITION":23,
						"NORMAL":24
					},
					"indices":25
				}
			]
		},
		{
			"name":"Cylinder.005",
			"primitives":[
				{
					"attributes":{
						"POSITION":26,
						"NORMAL":27,
						"TEXCOORD_0":28
					},
					"indices":10
				}
			]
		},
		{
			"name":"Cylinder.004",
			"primitives":[
				{
					"attributes":{
						"POSITION":29,
						"NORMAL":30,
						"TEXCOORD_0":31
					},
					"indices":32
				}
			]
		}
	],
	"accessors":[
		{
			"bufferView":0,
			"componentType":5126,
			"count":1544,
			"max":[
				0.9747052192687988,
				2.720949411392212,
				0.9747052192687988
			],
			"min":[
				-0.9747052192687988,
				-1.0000001192092896,
				-0.9747052192687988
			],
			"type":"VEC3"
		},
		{
			"bufferView":1,
			"componentType":5126,
			"count":1544,
			"type":"VEC3"
		},
		{
			"bufferView":2,
			"componentType":5123,
			"count":2316,
			"type":"SCALAR"
		},
		{
			"bufferView":3,
			"componentType":5126,
			"count":24,
			"max":[
				1,
				1,
				1
			],
			"min":[
				-1,
				-1,
				-1
			],
			"type":"VEC3"
		},
		{
			"bufferView":4,
			"componentType":5126,
			"count":24,
			"type":"VEC3"
		},
		{
			"bufferView":5,
			"componentType":5126,
			"count":24,
			"type":"VEC2"
		},
		{
			"bufferView":6,
			"componentType":5123,
			"count":36,
			"type":"SCALAR"
		},
		{
			"bufferView":7,
			"componentType":5126,
			"count":18,
			"max":[
				0.8660253882408142,
				1,
				0.5
			],
			"min":[
				-0.8660253882408142,
				-1,
				-1
			],
			"type":"VEC3"
		},
		{
			"bufferView":8,
			"componentType":5126,
			"count":18,
			"type":"VEC3"
		},
		{
			"bufferView":9,
			"componentType":5126,
			"count":18,
			"type":"VEC2"
		},
		{
			"bufferView":10,
			"componentType":5123,
			"count":24,
			"type":"SCALAR"
		},
		{
			"bufferView":11,
			"componentType":5126,
			"count":18,
			"max":[
				0.8660253882408142,
				1,
				0.5
			],
			"min":[
				-0.8660253882408142,
				-1,
				-1
			],
			"type":"VEC3"
		},
		{
			"bufferView":12,
			"componentType":5126,
			"count":18,
			"type":"VEC3"
		},
		{
			"bufferView":13,
			"componentType":5126,
			"count":18,
			"type":"VEC2"
		},
		{
			"bufferView":14,
			"componentType":5126,
			"count":24,
			"max":[
				1,
				1,
				1
			],
			"min":[
				-1,
				-1,
				-1
			],
			"type":"VEC3"
		},
		{
			"bufferView":15,
			"componentType":5126,
			"count":24,
			"type":"VEC3"
		},
		{
			"bufferView":16,
			"componentType":5126,
			"count":24,
			"type":"VEC2"
		},
		{
			"bufferView":17,
			"componentType":5126,
			"count":18,
			"max":[
				0.8660253882408142,
				1,
				0.5
			],
			"min":[
				-0.8660253882408142,
				-1,
				-1
			],
			"type":"VEC3"
		},
		{
			"bufferView":18,
			"componentType":5126,
			"count":18,
			"type":"VEC3"
		},
		{
			"bufferView":19,
			"componentType":5126,
			"count":18,
			"type":"VEC2"
		},
		{
			"bufferView":20,
			"componentType":5126,
			"count":24,
			"max":[
				1,
				1,
				1
			],
			"min":[
				-1,
				-1,
				-1
			],
			"type":"VEC3"
		},
		{
			"bufferView":21,
			"componentType":5126,
			"count":24,
			"type":"VEC3"
		},
		{
			"bufferView":22,
			"componentType":5126,
			"count":24,
			"type":"VEC2"
		},
		{
			"bufferView":23,
			"componentType":5126,
			"count":328,
			"max":[
				1.702942132949829,
				0.942536473274231,
				0.775739312171936
			],
			"min":[
				-0.775477409362793,
				-0.7813860177993774,
				-1.6922321319580078
			],
			"type":"VEC3"
		},
		{
			"bufferView":24,
			"componentType":5126,
			"count":328,
			"type":"VEC3"
		},
		{
			"bufferView":25,
			"componentType":5123,
			"count":492,
			"type":"SCALAR"
		},
		{
			"bufferView":26,
			"componentType":5126,
			"count":18,
			"max":[
				0.8660253882408142,
				1,
				0.5
			],
			"min":[
				-0.8660253882408142,
				-1,
				-1
			],
			"type":"VEC3"
		},
		{
			"bufferView":27,
			"componentType":5126,
			"count":18,
			"type":"VEC3"
		},
		{
			"bufferView":28,
			"componentType":5126,
			"count":18,
			"type":"VEC2"
		},
		{
			"bufferView":29,
			"componentType":5126,
			"count":78,
			"max":[
				0.9927088618278503,
				1,
				0.9709418416023254
			],
			"min":[
				-0.9927088618278503,
				-1,
				-1
			],
			"type":"VEC3"
		},
		{
			"bufferView":30,
			"componentType":5126,
			"count":78,
			"type":"VEC3"
		},
		{
			"bufferView":31,
			"componentType":5126,
			"count":78,
			"type":"VEC2"
		},
		{
			"bufferView":32,
			"componentType":5123,
			"count":144,
			"type":"SCALAR"
		}
	],
	"bufferViews":[
		{
			"buffer":0,
			"byteLength":18528,
			"byteOffset":0,
			"target":34962
		},
		{
			"buffer":0,
			"byteLength":18528,
			"byteOffset":18528,
			"target":34962
		},
		{
			"buffer":0,
			"byteLength":4632,
			"byteOffset":37056,
			"target":34963
		},
		{
			"buffer":0,
			"byteLength":288,
			"byteOffset":41688,
			"target":34962
		},
		{
			"buffer":0,
			"byteLength":288,
			"byteOffset":41976,
			"target":34962
		},
		{
			"buffer":0,
			"byteLength":192,
			"byteOffset":42264,
			"target":34962
		},
		{
			"buffer":0,
			"byteLength":72,
			"byteOffset":42456,
			"target":34963
		},
		{
			"buffer":0,
			"byteLength":216,
			"byteOffset":42528,
			"target":34962
		},
		{
			"buffer":0,
			"byteLength":216,
			"byteOffset":42744,
			"target":34962
		},
		{
			"buffer":0,
			"byteLength":144,
			"byteOffset":42960,
			"target":34962
		},
		{
			"buffer":0,
			"byteLength":48,
			"byteOffset":43104,
			"target":34963
		},
		{
			"buffer":0,
			"byteLength":216,
			"byteOffset":43152,
			"target":34962
		},
		{
			"buffer":0,
			"byteLength":216,
			"byteOffset":43368,
			"target":34962
		},
		{
			"buffer":0,
			"byteLength":144,
			"byteOffset":43584,
			"target":34962
		},
		{
			"buffer":0,
			"byteLength":288,
			"byteOffset":43728,
			"target":34962
		},
		{
			"buffer":0,
			"byteLength":288,
			"byteOffset":44016,
			"target":34962
		},
		{
			"buffer":0,
			"byteLength":192,
			"byteOffset":44304,
			"target":34962
		},
		{
			"buffer":0,
			"byteLength":216,
			"byteOffset":44496,
			"target":34962
		},
		{
			"buffer":0,
			"byteLength":216,
			"byteOffset":44712,
			"target":34962
		},
		{
			"buffer":0,
			"byteLength":144,
			"byteOffset":44928,
			"target":34962
		},
		{
			"buffer":0,
			"byteLength":288,
			"byteOffset":45072,
			"target":34962
		},
		{
			"buffer":0,
			"byteLength":288,
			"byteOffset":45360,
			"target":34962
		},
		{
			"buffer":0,
			"byteLength":192,
			"byteOffset":45648,
			"target":34962
		},
		{
			"buffer":0,
			"byteLength":3936,
			"byteOffset":45840,
			"target":34962
		},
		{
			"buffer":0,
			"byteLength":3936,
			"byteOffset":49776,
			"target":34962
		},
		{
			"buffer":0,
			"byteLength":984,
			"byteOffset":53712,
			"target":34963
		},
		{
			"buffer":0,
			"byteLength":216,
			"byteOffset":54696,
			"target":34962
		},
		{
			"buffer":0,
			"byteLength":216,
			"byteOffset":54912,
			"target":34962
		},
		{
			"buffer":0,
			"byteLength":144,
			"byteOffset":55128,
			"target":34962
		},
		{
			"buffer":0,
			"byteLength":936,
			"byteOffset":55272,
			"target":34962
		},
		{
			"buffer":0,
			"byteLength":936,
			"byteOffset":56208,
			"target":34962
		},
		{
			"buffer":0,
			"byteLength":624,
			"byteOffset":57144,
			"target":34962
		},
		{
			"buffer":0,
			"byteLength":288,
			"byteOffset":57768,
			"target":34963
		}
	],
	"buffers":[
		{
			"byteLength":58056,
			"uri":"lilypad-village.bin"
		}
	]
}
